<?xml version="1.0" encoding="UTF-8"?>
<svg id="Vrstva_2" data-name="Vrstva 2" xmlns="http://www.w3.org/2000/svg" viewBox="0 0 127.59 120.2">
  <defs>
    <style>
      .cls-1 {
        fill: #6192ff;
      }

      .cls-2 {
        fill: #ffce61;
      }
    </style>
  </defs>
  <g id="Layer_1" data-name="Layer 1">
    <path class="cls-2" d="M121.68,4.59c-5.36-5.26-21.33.76-21.33.76,0,0-47.24-6.33-71.71,21.28C4.16,54.23,4.21,87.76,8.64,92.82l-2.26,9.87-2.12,7.17,5.7,7.32,8.2-.65,7.32-2.43,13.17,4.13,11,1.88,12.27-3.58.99-.71c12.08-1.62,25.29-6.36,36.41-17.46,28.44-28.4,23.12-67.49,19.87-70.7,1.89-2.16,10.54-15.18,2.5-23.07Z"/>
    <g>
      <path class="cls-1" d="M32.5,117.63c-.44-.16-.9-.28-1.32-.48-3.37-1.62-6.53-1.79-10,.17-2.04,1.16-4.69,1.3-7.09,1.79-7.43,1.51-12.88-7.71-11.08-13.01.52-1.55,1.04-3.11,1.63-4.63.55-1.42,1.16-2.81,1.79-4.2,1.07-2.37,1.25-4.17-1.03-6.4C1.37,86.93.04,81.48,0,76.04c-.03-4.63.29-9.45,1.56-13.87,2.48-8.65,5.63-17.11,8.71-25.57,1.58-4.34,4.47-7.97,7.72-11.19C27.81,15.69,39.09,8.24,52.61,4.87c5.52-1.38,11.29-1.97,16.99-2.37,7.82-.56,15.68-.96,23.5-.74,5.24.15,10.26.33,15.42-1.19,4.81-1.42,9.48-.07,13.54,3.09,5.79,4.5,7.42,11.14,3.05,16.97-3.09,4.13-3.3,7.56-1.88,12.4,4.07,13.89,3.25,27.72-3.96,40.48-4.07,7.19-9.01,13.96-14.12,20.47-5.96,7.6-14.03,12.66-22.86,16.46-8.29,3.57-16.76,6.58-25.59,8.62-8.25,1.91-16.27,1.42-24.2-1.42ZM8.98,100.35c-.79,2.61-1.71,4.69-2.01,6.86-.64,4.6,2.79,8.35,7.41,8.12,2.07-.1,4.34-.36,6.13-1.29,4.02-2.11,7.62-1.31,11.4.51,7.77,3.73,15.85,4.62,24.31,2.7,9.78-2.21,19.1-5.66,27.96-10.27,3.62-1.88,7.07-4.15,10.35-6.58,6.92-5.12,11.39-12.36,15.91-19.45,2.94-4.62,5.72-9.45,7.74-14.51,4.91-12.27,3.32-24.84.72-37.36-.23-1.09-.83-1.41-1.93-1.59-1.44-.23-2.93-.7-4.18-1.44-1.36-.81-2.48-2.03-3.68-3.1-.78-.7-1.55-1.43-2.25-2.21-.17-.19-.07-.61-.09-.93.32.02.74-.09.94.07,1.1.88,2.15,1.82,3.2,2.76,2.03,1.81,4.42,2.58,7.1,2.27.71-.08,1.65-.5,1.98-1.06,1.14-1.9,2.25-3.86,3.03-5.92,2.06-5.42.58-9.63-4.35-12.65-2.35-1.44-4.94-2.23-7.73-1.75-2.54.44-5.12.79-7.55,1.6-2.43.81-4.73,1.12-7.21.45-.89-.24-1.85-.31-2.78-.32-7.25-.12-14.51-.24-21.76-.29-19.34-.11-35.91,6.82-50.13,19.71-4.49,4.07-8.25,8.68-10.2,14.49-1.87,5.55-3.61,11.14-5.21,16.77-1.78,6.25-2.17,12.62-1.61,19.13.47,5.37,2.17,10.32,4.4,15.08,1.73,3.7,1.99,7.13.08,10.2Z"/>
      <path class="cls-1" d="M65.92,102.37c-1.99-.36-3.98-.97-5.98-1.02-1.99-.05-3.72.79-5.21,2.4-.91.99-2.54,1.49-3.94,1.83-5.53,1.33-10.65-.45-15.71-2.35-.75-.28-1.55-.69-2.07-1.26-.49-.54-.65-1.38-.96-2.08.74-.08,1.51-.34,2.2-.2,4.24.88,8.48,1.79,12.68,2.81,3.05.74,5.85-.34,8.53-1.31,2.63-.95,5.14-1.1,7.88-1.02,2.74.08,5.56-.38,8.25-1.02,2.83-.68,5.54-1.86,8.31-2.8.3-.1.66-.03,1-.04-.27.25-.5.58-.81.75-2.74,1.55-5.57,2.96-8.22,4.64-1.92,1.21-3.87,1.5-5.94.66Z"/>
    </g>
  </g>
</svg>